<svg xmlns="http://www.w3.org/2000/svg" viewBox="0 0 64 64">
  <defs>
    <linearGradient id="g" x1="0" x2="1" y1="0" y2="1">
      <stop offset="0" stop-color="#2f3a56" />
      <stop offset="1" stop-color="#0a0a0a" />
    </linearGradient>
  </defs>
  <rect width="64" height="64" rx="8" fill="url(#g)"/>
  <g fill="#fff">
    <path d="M18 45V19h10.5c4.5 0 7.5 2.6 7.5 6.4c0 3-1.8 5.2-4.5 6.1c3.1.8 5 3.2 5 6.5c0 4.4-3.2 7-8.4 7H18zm7-15h3c2.4 0 3.9-1.3 3.9-3.3c0-2-1.5-3.2-3.9-3.2H25v6.5zm0 5.4V40h4.2c2.7 0 4.3-1.2 4.3-3.2c0-2.1-1.6-3.3-4.3-3.3H25z"/>
  </g>
</svg>


