<svg xmlns="http://www.w3.org/2000/svg" width="480" height="360" viewBox="0 0 480 360">
  <!-- subtle staff lines -->
  <g stroke="currentColor" stroke-width="0.8" opacity="0.35">
    <line x1="0" y1="40" x2="480" y2="40"/>
    <line x1="0" y1="55" x2="480" y2="55"/>
    <line x1="0" y1="70" x2="480" y2="70"/>
    <line x1="0" y1="85" x2="480" y2="85"/>
    <line x1="0" y1="100" x2="480" y2="100"/>

    <line x1="0" y1="160" x2="480" y2="160"/>
    <line x1="0" y1="175" x2="480" y2="175"/>
    <line x1="0" y1="190" x2="480" y2="190"/>
    <line x1="0" y1="205" x2="480" y2="205"/>
    <line x1="0" y1="220" x2="480" y2="220"/>

    <line x1="0" y1="280" x2="480" y2="280"/>
    <line x1="0" y1="295" x2="480" y2="295"/>
    <line x1="0" y1="310" x2="480" y2="310"/>
    <line x1="0" y1="325" x2="480" y2="325"/>
    <line x1="0" y1="340" x2="480" y2="340"/>
  </g>

  <!-- classic noteheads + stems, understated -->
  <g fill="currentColor" opacity="0.55">
    <ellipse cx="60" cy="70" rx="5.5" ry="4" transform="rotate(-20 60 70)"/>
    <rect x="64" y="48" width="1.6" height="24"/>

    <ellipse cx="120" cy="85" rx="5.5" ry="4" transform="rotate(-20 120 85)"/>
    <rect x="124" y="63" width="1.6" height="24"/>

    <ellipse cx="180" cy="55" rx="5.5" ry="4" transform="rotate(-20 180 55)"/>
    <rect x="184" y="33" width="1.6" height="24"/>

    <ellipse cx="240" cy="100" rx="5.5" ry="4" transform="rotate(-20 240 100)"/>
    <rect x="244" y="78" width="1.6" height="24"/>

    <ellipse cx="300" cy="70" rx="5.5" ry="4" transform="rotate(-20 300 70)"/>
    <rect x="304" y="48" width="1.6" height="24"/>
  </g>

  <g fill="currentColor" opacity="0.55">
    <ellipse cx="80" cy="190" rx="5.5" ry="4" transform="rotate(-20 80 190)"/>
    <rect x="84" y="168" width="1.6" height="24"/>

    <ellipse cx="140" cy="205" rx="5.5" ry="4" transform="rotate(-20 140 205)"/>
    <rect x="144" y="183" width="1.6" height="24"/>

    <ellipse cx="200" cy="175" rx="5.5" ry="4" transform="rotate(-20 200 175)"/>
    <rect x="204" y="153" width="1.6" height="24"/>

    <ellipse cx="260" cy="220" rx="5.5" ry="4" transform="rotate(-20 260 220)"/>
    <rect x="264" y="198" width="1.6" height="24"/>

    <ellipse cx="320" cy="190" rx="5.5" ry="4" transform="rotate(-20 320 190)"/>
    <rect x="324" y="168" width="1.6" height="24"/>
  </g>

  <g fill="currentColor" opacity="0.55">
    <ellipse cx="100" cy="310" rx="5.5" ry="4" transform="rotate(-20 100 310)"/>
    <rect x="104" y="288" width="1.6" height="24"/>

    <ellipse cx="160" cy="325" rx="5.5" ry="4" transform="rotate(-20 160 325)"/>
    <rect x="164" y="303" width="1.6" height="24"/>

    <ellipse cx="220" cy="295" rx="5.5" ry="4" transform="rotate(-20 220 295)"/>
    <rect x="224" y="273" width="1.6" height="24"/>

    <ellipse cx="280" cy="340" rx="5.5" ry="4" transform="rotate(-20 280 340)"/>
    <rect x="284" y="318" width="1.6" height="24"/>
  </g>
</svg>


